<svg class="animated" id="freepik_stories-birthday-cake" xmlns="http://www.w3.org/2000/svg" viewBox="0 0 500 500" version="1.1" xmlns:xlink="http://www.w3.org/1999/xlink" xmlns:svgjs="http://svgjs.com/svgjs"><style>svg#freepik_stories-birthday-cake:not(.animated) .animable {opacity: 0;}svg#freepik_stories-birthday-cake.animated #freepik--background-complete--inject-91 {animation: 1s 1 forwards cubic-bezier(.36,-0.01,.5,1.38) slideDown;animation-delay: 0s;}svg#freepik_stories-birthday-cake.animated #freepik--character-1--inject-91 {animation: 1s 1 forwards cubic-bezier(.36,-0.01,.5,1.38) slideUp;animation-delay: 0s;}svg#freepik_stories-birthday-cake.animated #freepik--character-2--inject-91 {animation: 1s 1 forwards cubic-bezier(.36,-0.01,.5,1.38) slideUp;animation-delay: 0s;}svg#freepik_stories-birthday-cake.animated #freepik--birthday-cake--inject-91 {animation: 1.7s 1 forwards ease-out slideUp;animation-delay: 0s;}            @keyframes slideDown {                0% {                    opacity: 0;                    transform: translateY(-30px);                }                100% {                    opacity: 1;                    transform: translateY(0);                }            }                    @keyframes slideUp {                0% {                    opacity: 0;                    transform: translateY(30px);                }                100% {                    opacity: 1;                    transform: inherit;                }            }        </style><g id="freepik--background-complete--inject-91" class="animable" style="transform-origin: 250px 221.725px;"><rect y="382.4" width="500" height="0.25" style="fill: rgb(235, 235, 235); transform-origin: 250px 382.525px;" id="elgjtbrt0joe7" class="animable"></rect><rect x="52.46" y="391.92" width="33.12" height="0.25" style="fill: rgb(235, 235, 235); transform-origin: 69.02px 392.045px;" id="elnn9w5hyq5mg" class="animable"></rect><rect x="153.44" y="389.21" width="26.39" height="0.25" style="fill: rgb(235, 235, 235); transform-origin: 166.635px 389.335px;" id="elpeddn7zpzo" class="animable"></rect><rect x="89.97" y="397.82" width="45.92" height="0.25" style="fill: rgb(235, 235, 235); transform-origin: 112.93px 397.945px;" id="elynu2kvcix4" class="animable"></rect><rect x="428.3" y="399.53" width="21.6" height="0.25" style="fill: rgb(235, 235, 235); transform-origin: 439.1px 399.655px;" id="el9qgfvmpim9m" class="animable"></rect><rect x="391.47" y="399.53" width="31.97" height="0.25" style="fill: rgb(235, 235, 235); transform-origin: 407.455px 399.655px;" id="elyrwu0b34e5g" class="animable"></rect><rect x="277.21" y="395.31" width="55.12" height="0.25" style="fill: rgb(235, 235, 235); transform-origin: 304.77px 395.435px;" id="elcc485pgzmqr" class="animable"></rect><path d="M237,337.8H43.91a5.71,5.71,0,0,1-5.7-5.71V60.66A5.71,5.71,0,0,1,43.91,55H237a5.71,5.71,0,0,1,5.71,5.71V332.09A5.71,5.71,0,0,1,237,337.8ZM43.91,55.2a5.46,5.46,0,0,0-5.45,5.46V332.09a5.46,5.46,0,0,0,5.45,5.46H237a5.47,5.47,0,0,0,5.46-5.46V60.66A5.47,5.47,0,0,0,237,55.2Z" style="fill: rgb(235, 235, 235); transform-origin: 140.46px 196.4px;" id="elztccqr8wl99" class="animable"></path><path d="M453.31,337.8H260.21a5.72,5.72,0,0,1-5.71-5.71V60.66A5.72,5.72,0,0,1,260.21,55h193.1A5.71,5.71,0,0,1,459,60.66V332.09A5.71,5.71,0,0,1,453.31,337.8ZM260.21,55.2a5.47,5.47,0,0,0-5.46,5.46V332.09a5.47,5.47,0,0,0,5.46,5.46h193.1a5.47,5.47,0,0,0,5.46-5.46V60.66a5.47,5.47,0,0,0-5.46-5.46Z" style="fill: rgb(235, 235, 235); transform-origin: 356.75px 196.4px;" id="elx937h1g2ga" class="animable"></path><g id="elh1id9pidclf"><rect x="90.4" y="102.37" width="82.38" height="263.72" style="fill: rgb(224, 224, 224); transform-origin: 131.59px 234.23px; transform: rotate(180deg);" class="animable" id="el7sigb5qqj04"></rect></g><g id="elmucmhvegeo8"><rect x="85.5" y="102.37" width="84.01" height="263.72" style="fill: rgb(245, 245, 245); transform-origin: 127.505px 234.23px; transform: rotate(180deg);" class="animable" id="elf47ae8qw5qp"></rect></g><g id="elsxi6td59eqs"><rect x="5.08" y="199.26" width="244.86" height="69.94" style="fill: rgb(255, 255, 255); transform-origin: 127.51px 234.23px; transform: rotate(-90deg);" class="animable" id="el7xsqfrb8ao5"></rect></g><path d="M124.26,227.73l-5.13,5.67h0c0-17.33,5.21-37.15,11.63-44.26l5.13-5.67h0C135.89,200.81,130.68,220.63,124.26,227.73Z" style="fill: rgb(245, 245, 245); transform-origin: 127.51px 208.435px;" id="el29ns2cuqcb5" class="animable"></path><path d="M124.26,279.32,119.13,285h0c0-17.34,5.21-37.15,11.63-44.26l5.13-5.67h0C135.89,252.4,130.68,272.21,124.26,279.32Z" style="fill: rgb(245, 245, 245); transform-origin: 127.51px 260.035px;" id="elz9xk4k3q0wh" class="animable"></path><path d="M124.26,176.15l-5.13,5.67h0c0-17.34,5.21-37.15,11.63-44.26l5.13-5.67h0C135.89,149.23,130.68,169,124.26,176.15Z" style="fill: rgb(245, 245, 245); transform-origin: 127.51px 156.855px;" id="el3jn8knanly7" class="animable"></path><path d="M124.26,330.9l-5.13,5.67h0c0-17.33,5.21-37.15,11.63-44.26l5.13-5.67h0C135.89,304,130.68,323.8,124.26,330.9Z" style="fill: rgb(245, 245, 245); transform-origin: 127.51px 311.605px;" id="elspj06a2113" class="animable"></path><rect x="201.62" y="85.2" width="230.86" height="152.37" style="fill: rgb(235, 235, 235); transform-origin: 317.05px 161.385px;" id="ela3yiiuml9q4" class="animable"></rect><g id="elj14e9sw9px"><rect x="432.48" y="85.2" width="4.49" height="152.37" style="fill: rgb(224, 224, 224); transform-origin: 434.725px 161.385px; transform: rotate(180deg);" class="animable" id="el31q6uhq202c"></rect></g><rect x="215.35" y="98.93" width="203.4" height="124.91" style="fill: rgb(245, 245, 245); transform-origin: 317.05px 161.385px;" id="elil6pmenwfpm" class="animable"></rect><polygon points="311.23 223.84 291.33 223.84 234.07 98.93 253.97 98.93 311.23 223.84" style="fill: rgb(250, 250, 250); transform-origin: 272.65px 161.385px;" id="el5a7tme2pnwt" class="animable"></polygon><polygon points="355.56 223.84 319.5 223.84 262.24 98.93 298.31 98.93 355.56 223.84" style="fill: rgb(250, 250, 250); transform-origin: 308.9px 161.385px;" id="elt2367qeydl" class="animable"></polygon><polygon points="408.95 223.84 389.05 223.84 331.8 98.93 351.69 98.93 408.95 223.84" style="fill: rgb(250, 250, 250); transform-origin: 370.375px 161.385px;" id="elmqlrfom7mvs" class="animable"></polygon><ellipse cx="309.49" cy="273.44" rx="15.78" ry="21.78" style="fill: rgb(245, 245, 245); transform-origin: 309.49px 273.44px;" id="elyxxvvx90j2" class="animable"></ellipse><path d="M309.49,295.22c-1.44,0-2.61,2.67-2.61,3.72h5.21C312.09,297.89,310.92,295.22,309.49,295.22Z" style="fill: rgb(245, 245, 245); transform-origin: 309.485px 297.08px;" id="ell1cn01k8gfa" class="animable"></path><rect x="309.24" y="295.22" width="0.49" height="87.17" style="fill: rgb(224, 224, 224); transform-origin: 309.485px 338.805px;" id="elk59aph3yriq" class="animable"></rect><path d="M310,295.65h-1a.43.43,0,0,1-.43-.43h0a.43.43,0,0,1,.43-.43h1a.43.43,0,0,1,.43.43h0A.43.43,0,0,1,310,295.65Z" style="fill: rgb(224, 224, 224); transform-origin: 309.5px 295.22px;" id="elt9wco74rve" class="animable"></path><g id="elbms65nmx3oj"><ellipse cx="271.46" cy="284.61" rx="15.78" ry="21.78" style="fill: rgb(235, 235, 235); transform-origin: 271.46px 284.61px; transform: rotate(-5.58deg);" class="animable" id="el26xr0fk00hr"></ellipse></g><path d="M273.58,306.28c-1.43.14-2.33,2.92-2.23,4l5.19-.5C276.43,308.69,275,306.15,273.58,306.28Z" style="fill: rgb(235, 235, 235); transform-origin: 273.941px 308.278px;" id="el1x5gzrdoffni" class="animable"></path><polygon points="273.83 306.26 273.34 306.31 275.37 382.4 275.86 382.4 273.83 306.26" style="fill: rgb(224, 224, 224); transform-origin: 274.6px 344.33px;" id="el8mrdxafjw0y" class="animable"></polygon><path d="M274.14,306.66l-1,.1a.42.42,0,0,1-.46-.38h0a.41.41,0,0,1,.38-.47l1-.1a.43.43,0,0,1,.47.38h0A.43.43,0,0,1,274.14,306.66Z" style="fill: rgb(224, 224, 224); transform-origin: 273.604px 306.285px;" id="elh6f9851ecpp" class="animable"></path><g id="el31d44irozuo"><ellipse cx="353.38" cy="285.2" rx="21.89" ry="15.7" style="fill: rgb(230, 230, 230); transform-origin: 353.38px 285.2px; transform: rotate(-81.57deg);" class="animable" id="ela6corsphazi"></ellipse></g><path d="M351.83,307c1.44,0,2.41,2.67,2.34,3.72H349C349,309.65,350.39,307,351.83,307Z" style="fill: rgb(230, 230, 230); transform-origin: 351.587px 308.86px;" id="el0xsbo3b998e" class="animable"></path><polygon points="351.58 306.98 352.07 306.98 346.7 382.4 346.21 382.4 351.58 306.98" style="fill: rgb(224, 224, 224); transform-origin: 349.14px 344.69px;" id="el3tkcaem3221" class="animable"></polygon><path d="M351.29,307.41h1a.47.47,0,0,0,.46-.43h0a.39.39,0,0,0-.4-.43h-1a.47.47,0,0,0-.46.43h0A.4.4,0,0,0,351.29,307.41Z" style="fill: rgb(224, 224, 224); transform-origin: 351.82px 306.98px;" id="elwunr4942j6a" class="animable"></path><g id="el1tde5kpgucu"><ellipse cx="390.61" cy="296.37" rx="22.03" ry="15.59" style="fill: rgb(245, 245, 245); transform-origin: 390.61px 296.37px; transform: rotate(-76.39deg);" class="animable" id="el4lir0zgwje"></ellipse></g><path d="M386.94,318c1.43.14,2.13,2.91,1.95,4l-5.14-.51C383.92,320.45,385.52,317.9,386.94,318Z" style="fill: rgb(245, 245, 245); transform-origin: 386.334px 319.999px;" id="elsgrdyihp13j" class="animable"></path><polygon points="386.7 318.02 387.19 318.07 380.58 382.4 380.09 382.4 386.7 318.02" style="fill: rgb(224, 224, 224); transform-origin: 383.64px 350.21px;" id="el8q9ecwol7n" class="animable"></polygon><path d="M386.36,318.42l1,.1a.46.46,0,0,0,.49-.39h0a.38.38,0,0,0-.35-.46l-1-.1a.48.48,0,0,0-.5.38h0A.4.4,0,0,0,386.36,318.42Z" style="fill: rgb(224, 224, 224); transform-origin: 386.926px 318.045px;" id="eldi15yohlgep" class="animable"></path><g id="elcewkuwt8fog"><ellipse cx="231.85" cy="278.98" rx="15.59" ry="22.03" style="fill: rgb(245, 245, 245); transform-origin: 231.85px 278.98px; transform: rotate(-13.61deg);" class="animable" id="el4kwaw3mjv52"></ellipse></g><path d="M235.51,300.65c-1.42.14-2.12,2.91-1.95,4l5.15-.51C238.53,303.06,236.93,300.51,235.51,300.65Z" style="fill: rgb(245, 245, 245); transform-origin: 236.122px 302.647px;" id="elwxkjcgyrrps" class="animable"></path><polygon points="235.75 300.63 235.27 300.68 237.68 382.4 238.16 382.4 235.75 300.63" style="fill: rgb(224, 224, 224); transform-origin: 236.715px 341.515px;" id="elgdc90d474f" class="animable"></polygon><path d="M236.09,301l-1,.1a.47.47,0,0,1-.5-.39h0a.39.39,0,0,1,.35-.46l1-.1a.46.46,0,0,1,.49.38h0A.4.4,0,0,1,236.09,301Z" style="fill: rgb(224, 224, 224); transform-origin: 235.51px 300.625px;" id="el7wq74hjisj" class="animable"></path><path d="M361.55,43.67a75.42,75.42,0,0,1-111.55,0,75.42,75.42,0,0,1-111.55,0,75.42,75.42,0,0,1-111.55,0V50a75.42,75.42,0,0,0,111.55,0A75.42,75.42,0,0,0,250,50a75.42,75.42,0,0,0,111.55,0A75.42,75.42,0,0,0,473.1,50V43.67A75.42,75.42,0,0,1,361.55,43.67Z" style="fill: rgb(224, 224, 224); transform-origin: 250px 59.1613px;" id="elgl5mxbs4l9b" class="animable"></path></g><g id="freepik--Shadow--inject-91" class="animable" style="transform-origin: 250px 416.24px;"><ellipse id="freepik--path--inject-91" cx="250" cy="416.24" rx="193.89" ry="11.32" style="fill: rgb(245, 245, 245); transform-origin: 250px 416.24px;" class="animable"></ellipse></g><g id="freepik--character-1--inject-91" class="animable" style="transform-origin: 130.34px 268.75px;"><path d="M170.72,185.21c.67.55,1.54,1.2,2.33,1.8s1.64,1.21,2.48,1.8c1.68,1.17,3.4,2.29,5.13,3.37a78,78,0,0,0,10.77,5.57c.92.42,1.86.71,2.79,1.08s1.87.59,2.81.9l.43.13c.13,0,.23,0,.34.08a4.44,4.44,0,0,0,.62.05,3.18,3.18,0,0,0,1.45-.5,11.84,11.84,0,0,0,3.38-3.6,36.61,36.61,0,0,0,2.78-5.17l4.35,1a27.33,27.33,0,0,1-.59,3.51,24.53,24.53,0,0,1-1,3.43,16.69,16.69,0,0,1-4.35,6.61,10.84,10.84,0,0,1-4.29,2.33,10.72,10.72,0,0,1-5,0,53.63,53.63,0,0,1-6.7-1.92A72.82,72.82,0,0,1,176,199.9c-1.94-1.15-3.86-2.35-5.7-3.66-.92-.65-1.84-1.31-2.74-2s-1.76-1.36-2.73-2.2Z" style="fill: rgb(127, 62, 59); transform-origin: 187.605px 196.553px;" id="elh5tlqco4uz" class="animable"></path><path d="M169.37,182.89c9.67,4.84,9.31,8.48,9.31,8.48l-4.84,8.84s-15.13-4.3-16.53-8.76C155.86,186.8,164.68,180.54,169.37,182.89Z" style="fill: #DEB887; transform-origin: 167.916px 191.295px;" id="elbbtg6z5r52" class="animable"></path><g id="elad5eirz12zu"><path d="M169.37,182.89c9.67,4.84,9.31,8.48,9.31,8.48l-4.84,8.84s-15.13-4.3-16.53-8.76C155.86,186.8,164.68,180.54,169.37,182.89Z" style="fill: rgb(255, 255, 255); opacity: 0.3; transform-origin: 167.916px 191.295px;" class="animable" id="elerpvpl6cjqw"></path></g><path d="M179.09,190.5h0a.79.79,0,0,1,.3,1.07l-5,9a.78.78,0,0,1-1.06.3h0a.79.79,0,0,1-.31-1.06l5-9A.8.8,0,0,1,179.09,190.5Z" style="fill: rgb(38, 50, 56); transform-origin: 176.208px 195.688px;" id="el67mhipusaws" class="animable"></path><path d="M205.44,192.27l2.75-7.39,6.64,6s-3.52,4.44-8.4,4.2Z" style="fill: rgb(127, 62, 59); transform-origin: 210.135px 189.985px;" id="eled2vmsuyloh" class="animable"></path><polygon points="216.66 180.5 216.66 189.12 214.83 190.89 208.19 184.88 216.66 180.5" style="fill: rgb(127, 62, 59); transform-origin: 212.425px 185.695px;" id="eljj81o7jbsa8" class="animable"></polygon><path d="M204.77,181.65h0a2.57,2.57,0,0,1,2.4,1.59l2,4.69-2.8,2.4Z" style="fill: rgb(127, 62, 59); transform-origin: 206.97px 185.99px;" id="elxjj3vtfg868" class="animable"></path><path d="M216.19,179.22l-9.35-1.13-1.39,15.78a1.64,1.64,0,0,0,1.44,1.78l5,.62a1.65,1.65,0,0,0,1.83-1.39Z" style="fill: #DEB887; transform-origin: 210.816px 187.186px;" id="elsiwlzs5nvyf" class="animable"></path><polygon points="114.47 403.23 122.23 405.56 128.62 386.19 120.86 383.86 114.47 403.23" style="fill: rgb(127, 62, 59); transform-origin: 121.545px 394.71px;" id="el2ele0oajeri" class="animable"></polygon><polygon points="51.52 353.09 56.02 360.19 72.46 349.39 67.95 342.29 51.52 353.09" style="fill: rgb(127, 62, 59); transform-origin: 61.99px 351.24px;" id="el7245mp6n18i" class="animable"></polygon><path d="M57.27,359.57l-3-9a.67.67,0,0,0-.76-.47l-8.42,1.34a1.35,1.35,0,0,0-1,1.75c1.08,3.13,1.76,4.59,3,8.56.8,2.44,2.31,9.09,3.41,12.46s5.44,2.43,5.29.93c-.71-6.74.24-11.35,1.33-14.05A2.21,2.21,0,0,0,57.27,359.57Z" style="fill: rgb(38, 50, 56); transform-origin: 50.6805px 363.295px;" id="elanydipmkmtc" class="animable"></path><path d="M124.17,402l-9.25-3.88a.83.83,0,0,0-1,.26l-5.08,6.47a1.25,1.25,0,0,0,.51,1.94c3.25,1.39,4.8,2,8.86,3.73,2.5,1.05,9.39,5.32,13.11,5.77s4.84-3.13,3.38-3.65c-6.56-2.32-8.31-6.95-9.48-9.58A2.05,2.05,0,0,0,124.17,402Z" style="fill: rgb(38, 50, 56); transform-origin: 121.943px 407.189px;" id="elm8rhh9u047m" class="animable"></path><g id="el1y9fvfltqph"><polygon points="128.62 386.2 125.33 396.18 117.29 394.64 120.85 383.87 128.62 386.2" style="opacity: 0.2; transform-origin: 122.955px 390.025px;" class="animable" id="elt5jvnyk8yna"></polygon></g><g id="el17hy3rbm9b8"><polygon points="67.95 342.29 72.45 349.4 63.98 354.96 59.47 347.86 67.95 342.29" style="opacity: 0.2; transform-origin: 65.96px 348.625px;" class="animable" id="eltq0trvmkz5"></polygon></g><path d="M172.33,188.72c-.79,5.71-3.67,18-12.68,44.58l-33.84-5.66c2.66-12.7,4.09-20.93,2.8-45.54a5.74,5.74,0,0,1,5.84-6c2.5,0,5.5.2,8.5.56a109.86,109.86,0,0,1,15.37,2.57c3.6.95,7.48,2.27,10.24,3.26A5.84,5.84,0,0,1,172.33,188.72Z" style="fill: #DEB887; transform-origin: 149.094px 204.7px;" id="elltl71halrp" class="animable"></path><g id="elp0nrqwtnie"><path d="M172.33,188.72c-.79,5.71-3.67,18-12.68,44.58l-33.84-5.66c2.66-12.7,4.09-20.93,2.8-45.54a5.74,5.74,0,0,1,5.84-6c2.5,0,5.5.2,8.5.56a109.86,109.86,0,0,1,15.37,2.57c3.6.95,7.48,2.27,10.24,3.26A5.84,5.84,0,0,1,172.33,188.72Z" style="fill: rgb(255, 255, 255); opacity: 0.3; transform-origin: 149.094px 204.7px;" class="animable" id="elmgznmkx0x3l"></path></g><path d="M149.33,160.91c.13,4.69-.32,12.87-3.52,16.27a3.41,3.41,0,0,0-1,2.64c.24,2.27,1.82,5.9,9.37,6.67,5.67.57,6.6-2,6.52-3.92a3.19,3.19,0,0,0-1.45-2.56c-3.92-2.47-1.67-7.34-1.35-12.51Z" style="fill: rgb(127, 62, 59); transform-origin: 152.754px 173.74px;" id="elp9h5q71zufc" class="animable"></path><g id="elx3bydwc6ug"><path d="M153.13,163.82l-.78,0c-2.6.28-2,2.42-.76,5.52.7,1.84,2.9,4.61,5.43,6.95-.25-2.47.69-5.56.89-8.76Z" style="opacity: 0.2; transform-origin: 154.22px 170.055px;" class="animable" id="elk1mze2r77w"></path></g><path d="M144.9,154.72c2,8.14,2.64,11.64,7.56,15.12,7.39,5.25,17,1,17.47-7.54.45-7.72-2.86-19.75-11.51-21.59A11.45,11.45,0,0,0,144.9,154.72Z" style="fill: rgb(127, 62, 59); transform-origin: 157.259px 156.296px;" id="elta221vi54xr" class="animable"></path><path d="M164.78,147.64c4.25-2.13,6.31-7.07,1.59-8.61-1.2-6.75-13.29-10.61-20.78-1.59-5.89,7.1-12.43,7.81-9.9,14,2.87,7.06,11.3,10.45,11.3,10.45s4.21-7.82,2.42-12.5C155.74,150.73,160,150,164.78,147.64Z" style="fill: rgb(38, 50, 56); transform-origin: 152.102px 147.02px;" id="elc174ay798m6" class="animable"></path><path d="M137.88,145.53s9.63-2.41,15.29-11.07c-1.7-1.21-21.22-13.29-21.22-13.29Z" style="fill: #DEB887; transform-origin: 142.56px 133.35px;" id="el310jnvink8v" class="animable"></path><g id="eld4qdfgui0er"><path d="M137.88,145.53s9.63-2.41,15.29-11.07c-1.7-1.21-21.22-13.29-21.22-13.29Z" style="fill: rgb(255, 255, 255); opacity: 0.6; transform-origin: 142.56px 133.35px;" class="animable" id="eltvqj6tirurl"></path></g><path d="M143.68,162.22a6.12,6.12,0,0,0,4.14,2.18c2.15.19,2.82-1.82,1.89-3.64-.84-1.63-3-3.69-5-3A2.75,2.75,0,0,0,143.68,162.22Z" style="fill: rgb(127, 62, 59); transform-origin: 146.524px 161.018px;" id="elmuetxce1ffj" class="animable"></path><path d="M159.65,233.3s-.4,48.89-8.12,85c-5.17,24.16-21.13,73-21.13,73l-14.58-.38s11.42-51.22,14.34-71.36c5-34.46,4.71-90.34,4.71-90.34Z" style="fill: rgb(38, 50, 56); transform-origin: 137.735px 310.26px;" id="ely7cuioe4pbo" class="animable"></path><g id="el3hs5x0jxyyz"><path d="M141.21,256.58l-6.67-.87c-.28,11.21-.79,24.67-1.72,37.74A58.41,58.41,0,0,0,141.21,256.58Z" style="opacity: 0.2; transform-origin: 137.179px 274.58px;" class="animable" id="el1kre16hfosd"></path></g><polygon points="130.84 393.83 114.47 391.26 115.82 384.5 132.96 387.87 130.84 393.83" style="fill: #DEB887; transform-origin: 123.715px 389.165px;" id="elr9faeqivjus" class="animable"></polygon><path d="M152.24,232.17s-15.59,52-33.12,80C105,334.84,68,354.06,68,354.06l-4.38-10.78s24.17-21.49,34.51-36.45c25.36-36.67,14.35-65.9,27.72-79.19Z" style="fill: rgb(38, 50, 56); transform-origin: 107.93px 290.85px;" id="elbr5yglsfvss" class="animable"></path><polygon points="67.8 355.65 60.18 344.55 65.93 339.79 74.18 352.63 67.8 355.65" style="fill: #DEB887; transform-origin: 67.18px 347.72px;" id="elx983x03hrkn" class="animable"></polygon><path d="M125.63,225.57l-2,2.77c-.16.22.08.5.47.57l35.5,5.94c.3.05.58-.06.63-.25l.81-3c.06-.21-.18-.43-.51-.49l-34.27-5.73A.61.61,0,0,0,125.63,225.57Z" style="fill: rgb(255, 255, 255); transform-origin: 142.315px 230.109px;" id="el064jwk1cgzd3" class="animable"></path><path d="M129.59,230.17l-.91-.15c-.19,0-.31-.15-.28-.26l1.09-3.87c0-.11.21-.18.39-.15l.92.15c.18,0,.31.15.27.27L130,230C130,230.13,129.78,230.2,129.59,230.17Z" style="fill: #DEB887; transform-origin: 129.736px 227.955px;" id="elz50jxaugtv" class="animable"></path><path d="M156.93,234.74l-.92-.15c-.18,0-.3-.15-.27-.26l1.09-3.86c0-.12.21-.18.39-.15l.92.15c.18,0,.3.15.27.26l-1.09,3.86C157.29,234.71,157.11,234.78,156.93,234.74Z" style="fill: #DEB887; transform-origin: 157.075px 232.532px;" id="eljghjetbq7t" class="animable"></path><path d="M143.26,232.46l-.92-.16c-.18,0-.3-.14-.27-.26l1.09-3.86c0-.11.21-.18.39-.15l.92.15c.18,0,.3.15.27.26l-1.09,3.87C143.62,232.42,143.45,232.49,143.26,232.46Z" style="fill: #DEB887; transform-origin: 143.405px 230.245px;" id="el3eeqm2xi23z" class="animable"></path><path d="M159.21,154.7c.12.67.57,1.15,1,1.08s.7-.69.58-1.36-.57-1.15-1-1.07S159.09,154,159.21,154.7Z" style="fill: rgb(38, 50, 56); transform-origin: 160px 154.564px;" id="elefqrpr01qo" class="animable"></path><path d="M166.79,153.35c.12.67.58,1.15,1,1.07s.7-.68.58-1.35-.57-1.15-1-1.08S166.67,152.68,166.79,153.35Z" style="fill: rgb(38, 50, 56); transform-origin: 167.58px 153.206px;" id="el6f4pijy8d4s" class="animable"></path><path d="M167.18,152.07l1.53-.76S168.11,152.72,167.18,152.07Z" style="fill: rgb(38, 50, 56); transform-origin: 167.945px 151.776px;" id="elqdc2uws8ogj" class="animable"></path><path d="M163.6,155a18.19,18.19,0,0,0,3.15,3.85,2.92,2.92,0,0,1-2.31.88Z" style="fill: rgb(99, 15, 15); transform-origin: 165.175px 157.369px;" id="el7eme20efvx" class="animable"></path><path d="M161.29,162.81a6.12,6.12,0,0,0,1.25-.1.17.17,0,0,0,.14-.2.16.16,0,0,0-.19-.13,5.48,5.48,0,0,1-4.74-1.31.16.16,0,1,0-.24.22A5.52,5.52,0,0,0,161.29,162.81Z" style="fill: rgb(38, 50, 56); transform-origin: 160.075px 161.914px;" id="elzfx2jb8gvcs" class="animable"></path><path d="M155.45,153.19a.3.3,0,0,0,.17-.27,3.25,3.25,0,0,1,1.4-2.61.33.33,0,0,0,.12-.45.34.34,0,0,0-.46-.12,3.9,3.9,0,0,0-1.72,3.15.32.32,0,0,0,.32.34A.25.25,0,0,0,155.45,153.19Z" style="fill: rgb(38, 50, 56); transform-origin: 156.072px 151.464px;" id="elmef5mxs80b9" class="animable"></path><path d="M168.59,150.56a.37.37,0,0,0,.33-.07.33.33,0,0,0,0-.47,3.91,3.91,0,0,0-3.32-1.36.34.34,0,0,0-.28.38.34.34,0,0,0,.38.28,3.26,3.26,0,0,1,2.73,1.14A.28.28,0,0,0,168.59,150.56Z" style="fill: rgb(38, 50, 56); transform-origin: 167.168px 149.609px;" id="eldpoufy8v3li" class="animable"></path><path d="M132.37,187.22c-.81.19-1.43.32-2.13.45s-1.36.24-2,.35q-2,.3-4,.51a74,74,0,0,1-8.16.31,59.13,59.13,0,0,1-8.18-.6c-1.37-.16-2.73-.43-4.08-.69-.67-.13-1.35-.32-2-.47s-1.32-.31-2.12-.57a23.18,23.18,0,0,1-8-4.46,34.83,34.83,0,0,1-5.8-6.26,48.67,48.67,0,0,1-4.25-7c-.61-1.21-1.16-2.44-1.67-3.68s-1-2.47-1.41-3.85l4.15-1.64a67.27,67.27,0,0,0,3.88,6.25A52.64,52.64,0,0,0,91,171.54c3.19,3.48,7,6.31,10.77,7.2.43.11,1,.21,1.64.31s1.17.22,1.76.29c1.19.13,2.37.32,3.57.39,2.39.22,4.8.26,7.22.24s4.85-.21,7.26-.47c1.21-.12,2.41-.27,3.6-.44l1.78-.29c.57-.09,1.2-.22,1.65-.31Z" style="fill: rgb(127, 62, 59); transform-origin: 105.47px 174.235px;" id="elzqqh9b3v5fl" class="animable"></path><path d="M83.12,163.58l.31-9.13-8,3.83s1.25,4.51,4.45,5.95Z" style="fill: rgb(127, 62, 59); transform-origin: 79.43px 159.34px;" id="elfdwvzqhx3f" class="animable"></path><polygon points="80.11 149.02 75.08 152.11 75.47 158.28 83.43 154.46 80.11 149.02" style="fill: rgb(127, 62, 59); transform-origin: 79.255px 153.65px;" id="el9yqbqot4lnu" class="animable"></polygon><path d="M137.38,176.83c-3.29-2.7-15.18,2.17-15.18,2.17l.6,11.26S136.13,191.9,140,188C143.26,184.7,141.57,180.27,137.38,176.83Z" style="fill: #DEB887; transform-origin: 131.955px 183.308px;" id="elmtgxh2k1rgi" class="animable"></path><g id="elvkn3gpxxi4"><path d="M137.38,176.83c-3.29-2.7-15.18,2.17-15.18,2.17l.6,11.26S136.13,191.9,140,188C143.26,184.7,141.57,180.27,137.38,176.83Z" style="fill: rgb(255, 255, 255); opacity: 0.3; transform-origin: 131.955px 183.308px;" class="animable" id="el4be3ahxag7y"></path></g><path d="M122.88,191h0a.78.78,0,0,1-.82-.74L121.5,179a.78.78,0,0,1,.74-.82h0a.78.78,0,0,1,.82.74l.56,11.27A.78.78,0,0,1,122.88,191Z" style="fill: rgb(38, 50, 56); transform-origin: 122.56px 184.59px;" id="el25e5l6kwxhu" class="animable"></path><path d="M57.4,364.61a1.21,1.21,0,0,0,.78,0,.67.67,0,0,0,.49-.44c.31-1-1.63-3.35-1.86-3.61a.16.16,0,0,0-.17-.05.17.17,0,0,0-.12.14c-.12,1.11-.21,3.08.6,3.77A1,1,0,0,0,57.4,364.61Zm-.59-3.5c.66.82,1.73,2.36,1.54,3a.31.31,0,0,1-.25.22.81.81,0,0,1-.77-.13C56.88,363.79,56.69,362.66,56.81,361.11Z" style="fill: #DEB887; transform-origin: 57.5728px 362.589px;" id="ela5puiezzadd" class="animable"></path><path d="M58.76,362.34a2,2,0,0,0,1.23.18.67.67,0,0,0,.45-.71,1,1,0,0,0-.36-.78c-.91-.8-3.31-.52-3.41-.51a.18.18,0,0,0-.12.27A6,6,0,0,0,58.76,362.34Zm.7-1.3a1.42,1.42,0,0,1,.4.24.68.68,0,0,1,.24.53c0,.28-.11.36-.22.39-.61.2-2.16-.68-2.85-1.37A6.36,6.36,0,0,1,59.46,361Z" style="fill: #DEB887; transform-origin: 58.4841px 361.507px;" id="elvk653pze3mf" class="animable"></path><path d="M127.64,405.26a3.27,3.27,0,0,0,2,.32,1.18,1.18,0,0,0,.82-.67.53.53,0,0,0,0-.57c-.6-.92-4.6-.78-5.06-.76a.16.16,0,0,0-.15.12.16.16,0,0,0,.06.18A13.22,13.22,0,0,0,127.64,405.26Zm2.14-1a.69.69,0,0,1,.35.23.23.23,0,0,1,0,.24.84.84,0,0,1-.6.5c-1,.25-2.74-.76-3.65-1.36A12.29,12.29,0,0,1,129.78,404.29Z" style="fill: #DEB887; transform-origin: 127.893px 404.59px;" id="el5qfb8kr7j0v" class="animable"></path><path d="M125.28,403.9h.07c1.18,0,4-.8,4.25-1.69.05-.19,0-.47-.42-.71-1.72-1-3.88,2-4,2.14a.17.17,0,0,0,0,.17A.3.3,0,0,0,125.28,403.9Zm3.62-2.17.12.07c.3.17.27.29.25.33-.15.57-2.24,1.32-3.57,1.43C126.25,402.89,127.73,401.25,128.9,401.73Z" style="fill: #DEB887; transform-origin: 127.387px 402.598px;" id="el83g17acstsa" class="animable"></path><path d="M159.6,153.42l1.53-.75S160.53,154.07,159.6,153.42Z" style="fill: rgb(38, 50, 56); transform-origin: 160.365px 153.131px;" id="elvqpkx5a8k1" class="animable"></path></g><g id="freepik--character-2--inject-91" class="animable" style="transform-origin: 363.779px 255.575px;"><polygon points="374.27 408.01 366.24 407.89 364.4 389.27 372.42 389.39 374.27 408.01" style="fill: rgb(255, 195, 189); transform-origin: 369.335px 398.64px;" id="elmcmczqtfhmd" class="animable"></polygon><polygon points="429.96 390.86 422.6 394.07 412.27 378.3 419.62 375.09 429.96 390.86" style="fill: rgb(255, 195, 189); transform-origin: 421.115px 384.58px;" id="elhjvpuaawo0s" class="animable"></polygon><g id="eluo9iz8g0ook"><polygon points="364.4 389.27 365.35 398.87 373.38 399 372.43 389.4 364.4 389.27" style="opacity: 0.2; transform-origin: 368.89px 394.135px;" class="animable" id="el1ews1ifmd1"></polygon></g><g id="el1fxi8rnovz6"><polygon points="419.63 375.09 412.27 378.31 417.6 386.43 424.96 383.22 419.63 375.09" style="opacity: 0.2; transform-origin: 418.615px 380.76px;" class="animable" id="elq93ttowdcf8"></polygon></g><path d="M362.26,395.9l13.59.21s-5.25-51.74-7-76.69c-.54-7.59-.29-18.32.34-29.87.81-14.56,1.34-20.39,2.43-38.79.78-13.12,1.74-21.62,1.74-21.62l-28.13,2.31s-1.11,63.71,2.08,88C350.62,344.7,362.26,395.9,362.26,395.9Z" style="fill: rgb(38, 50, 56); transform-origin: 360.447px 312.625px;" id="elqyqunjm6u9" class="animable"></path><g id="elj5dcir8tdjc"><path d="M365.61,246.78c-3.52,13.12-.1,42.44,3.2,50.41.1-2.49.23-5,.37-7.64.81-14.56,1.34-20.38,2.44-38.79,0-.36,0-.72.06-1.07A19.49,19.49,0,0,0,365.61,246.78Z" style="opacity: 0.2; transform-origin: 367.903px 271.985px;" class="animable" id="elet5oi2s64zw"></path></g><path d="M360.4,230.21s13,65.44,19.51,88C387,343,413,385.67,413,385.67l13-6.46s-15.92-33.89-21.88-58.29c-6.79-27.78-16.18-93-16.18-93Z" style="fill: rgb(38, 50, 56); transform-origin: 393.2px 306.795px;" id="eletg7u0hr82" class="animable"></path><path d="M420.92,393.71l8.38-5.06a.7.7,0,0,1,.86.11l5,5.29a1.18,1.18,0,0,1-.26,1.83c-2.73,1.58-4.79,2.61-8.18,4.66-2.09,1.27-6.91,4.42-9.79,6.16s-4.92-.82-4-1.85c4.33-4.62,6.27-7.49,7-10A2,2,0,0,1,420.92,393.71Z" style="fill: rgb(38, 50, 56); transform-origin: 424.095px 397.92px;" id="eljhfz05u9hw8" class="animable"></path><path d="M366.31,407l8.77.14a.69.69,0,0,1,.67.56l1.47,7.15a1.16,1.16,0,0,1-1.17,1.41c-3.16-.1-7.73-.36-11.7-.42-4.65-.07-5.18.12-10.63,0-3.3-.05-4.16-3.39-2.77-3.67,6.3-1.28,7.94-1.35,13.42-4.61A3.74,3.74,0,0,1,366.31,407Z" style="fill: rgb(38, 50, 56); transform-origin: 363.779px 411.63px;" id="el4besrlprd2r" class="animable"></path><path d="M346.74,176.7l-1,.62-.86.54c-.57.34-1.14.65-1.71,1-1.13.62-2.28,1.19-3.44,1.74a69.93,69.93,0,0,1-7.09,2.85,68.59,68.59,0,0,1-7.36,2.07c-1.24.29-2.51.53-3.77.74l-1.91.28-1.07.15c-.47.06-1,.1-1.46.12a14.65,14.65,0,0,1-6.09-1,15.36,15.36,0,0,1-4.9-3.2,18.54,18.54,0,0,1-3.08-3.94,24.28,24.28,0,0,1-1.9-4,36.77,36.77,0,0,1-1.95-7.76c-.17-1.27-.3-2.54-.37-3.8s-.09-2.48,0-3.88a3.75,3.75,0,0,1,7.29-1.08l.1.29a53.89,53.89,0,0,0,5,11.39,10.75,10.75,0,0,0,3.09,3.37,2.08,2.08,0,0,0,1.06.37,3.69,3.69,0,0,0,.78-.14l.27-.09.64-.18,1.52-.42c1-.31,2-.62,3-1,2-.65,4-1.44,5.92-2.22s3.87-1.68,5.75-2.62c.95-.44,1.87-.94,2.79-1.41l2.51-1.37.56-.3a7.49,7.49,0,0,1,7.65,12.86Z" style="fill: rgb(38, 50, 56); transform-origin: 324.396px 171.228px;" id="el39k8jnzrelp" class="animable"></path><path d="M355.51,173.17C353.8,180.65,336,186.58,336,186.58l-7.63-18.68a79.26,79.26,0,0,1,14.2-7.38C352,156.6,357.39,165,355.51,173.17Z" style="fill: #DEB887; transform-origin: 342.126px 173.053px;" id="elbnizb0vofh9" class="animable"></path><g id="elm7ojvx60fx"><path d="M340.84,174.78c-1.82,4.19-3.16,8.16-3.16,11.19,4.49-1.7,16.44-6.74,17.83-12.8a14.91,14.91,0,0,0,.27-1.58C351,168.12,343.92,167.66,340.84,174.78Z" style="opacity: 0.2; transform-origin: 346.73px 177.558px;" class="animable" id="elco55nyapjc"></path></g><path d="M304.3,155.4l-2.81-3.68-7.56,5.95s3.38,4.37,7.78,3.84a3.21,3.21,0,0,0,2.55-1.9l.43-1A3.19,3.19,0,0,0,304.3,155.4Z" style="fill: rgb(255, 195, 189); transform-origin: 299.443px 156.637px;" id="elsizgdlciswp" class="animable"></path><path d="M292.53,146.63l-.42,4.63a9.28,9.28,0,0,0,1.47,5.89l.35.52,7.56-5.95Z" style="fill: rgb(255, 195, 189); transform-origin: 296.782px 152.15px;" id="elhgtge82553r" class="animable"></path><path d="M304.55,148h0a2.59,2.59,0,0,0-2.05,2l-1,5,3.21,1.81Z" style="fill: rgb(255, 195, 189); transform-origin: 303.105px 152.405px;" id="elx4uh39h53x" class="animable"></path><path d="M303.81,146.1,294.46,145l-1.39,15.79a1.64,1.64,0,0,0,1.44,1.78l5,.62a1.66,1.66,0,0,0,1.83-1.39Z" style="fill: #DEB887; transform-origin: 298.436px 154.1px;" id="ela18i6xj4syw" class="animable"></path><path d="M386.62,164.56c-3.05,30.3,4.07,63.48,4.3,69.63-13.89,5.22-39.44,6.42-47.09,3.81-7.48-54.73-1.28-77.48-1.28-77.48s2.66-.86,6.34-1.69c1.15-.26,2.39-.51,3.69-.74.72-.13,1.45-.24,2.2-.35a160.8,160.8,0,0,1,18.23-.82c1.15,0,2.33,0,3.46.09s2.1.12,3.08.19l1.06.09A6.63,6.63,0,0,1,386.62,164.56Z" style="fill: #DEB887; transform-origin: 365.529px 198.121px;" id="elvej2m8oel7g" class="animable"></path><g id="elh8w3cnxel7"><path d="M384.11,158.68c-8.18-.8-14.86,11.34-9.29,18.67a31.27,31.27,0,0,0,11.12,9,170.43,170.43,0,0,1,.68-21.75A6.59,6.59,0,0,0,384.11,158.68Z" style="opacity: 0.2; transform-origin: 379.715px 172.496px;" class="animable" id="elswkcf7qse3"></path></g><polygon points="412.04 387.15 427.72 379.8 425.53 375.12 407.68 381.64 412.04 387.15" style="fill: #DEB887; transform-origin: 417.7px 381.135px;" id="elr7zwd94kz4" class="animable"></polygon><g id="elyeslud1xi5r"><polygon points="412.04 387.15 427.72 379.8 425.53 375.12 407.68 381.64 412.04 387.15" style="fill: rgb(255, 255, 255); opacity: 0.3; transform-origin: 417.7px 381.135px;" class="animable" id="els8w5huugx3"></polygon></g><polygon points="360.66 397.26 376.85 397.51 376.93 392.28 359.61 391.72 360.66 397.26" style="fill: #DEB887; transform-origin: 368.27px 394.615px;" id="el2q5ppluarvj" class="animable"></polygon><g id="el8z1jyxfrgr"><polygon points="360.66 397.26 376.85 397.51 376.93 392.28 359.61 391.72 360.66 397.26" style="fill: rgb(255, 255, 255); opacity: 0.3; transform-origin: 368.27px 394.615px;" class="animable" id="elc2jr96s3wdq"></polygon></g><path d="M419.38,396.29A9.28,9.28,0,0,0,421,395a.17.17,0,0,0,.05-.2.2.2,0,0,0-.18-.12c-.34,0-3.38,0-3.9.82a.6.6,0,0,0,0,.63,1.13,1.13,0,0,0,.85.66A2.52,2.52,0,0,0,419.38,396.29Zm1-1.28c-1,.94-1.94,1.44-2.51,1.35a.78.78,0,0,1-.58-.46.22.22,0,0,1,0-.25C417.58,395.21,419.2,395,420.41,395Z" style="fill: #DEB887; transform-origin: 418.972px 395.735px;" id="elkmhtvhuh6t" class="animable"></path><path d="M421,395a.18.18,0,0,0,.07-.08.18.18,0,0,0,0-.19c-.06-.08-1.42-2-2.62-2.13a1,1,0,0,0-.82.21h0a.62.62,0,0,0-.26.73c.32.86,2.61,1.53,3.55,1.49Zm-3.07-2a.7.7,0,0,1,.46-.08c.76.11,1.68,1.13,2.11,1.66-1-.11-2.59-.71-2.78-1.22,0,0-.06-.15.14-.31h0Z" style="fill: #DEB887; transform-origin: 419.217px 393.807px;" id="el7knjnyibk7j" class="animable"></path><path d="M365.5,408.06a.2.2,0,0,0,.13-.16.17.17,0,0,0-.1-.19c-.36-.2-3.56-1.88-4.54-1.36a.62.62,0,0,0-.32.51h0a1.06,1.06,0,0,0,.34.93c.87.79,3.17.51,4.47.27Zm-4.26-1.4c.61-.2,2.35.49,3.61,1.12-1.78.27-3.1.17-3.58-.27a.67.67,0,0,1-.22-.62.2.2,0,0,1,.12-.2Z" style="fill: #DEB887; transform-origin: 363.147px 407.281px;" id="el5zvc96er6k7" class="animable"></path><path d="M365.5,408.06l.05,0a.17.17,0,0,0,.08-.17c0-.09-.19-2.26-1.19-3.11a1.37,1.37,0,0,0-1.05-.34h0c-.53,0-.68.3-.72.52-.16.9,1.73,2.67,2.69,3.12A.23.23,0,0,0,365.5,408.06Zm-2.27-3.24a.69.69,0,0,1,.19,0h0a1,1,0,0,1,.77.26,4.45,4.45,0,0,1,1,2.49c-1-.61-2.26-2-2.16-2.54C363.05,405,363.07,404.87,363.23,404.82Zm.17-.22Z" style="fill: #DEB887; transform-origin: 364.146px 406.258px;" id="el2pjbdqg0fsn" class="animable"></path><path d="M388.55,161.94c2.25,1.81,4.17,3.59,6.15,5.46s3.84,3.8,5.67,5.78,3.63,4,5.37,6.08l2.73,3.37a15.93,15.93,0,0,1,3,5.92,13.58,13.58,0,0,1-.19,7.33,15.9,15.9,0,0,1-3,5.42,28.22,28.22,0,0,1-7.48,6.17,52.37,52.37,0,0,1-7.75,3.74,60.56,60.56,0,0,1-8,2.5,3.75,3.75,0,0,1-2.72-6.89l.18-.09a81.23,81.23,0,0,0,12-8.16,18.9,18.9,0,0,0,4-4.47,3.63,3.63,0,0,0,.55-1.54c0-.31-.1-.29-.21-.42a9.78,9.78,0,0,0-.78-.91l-2.56-2.44c-1.83-1.75-3.69-3.48-5.55-5.21l-11.13-10.21-.07-.06a7.5,7.5,0,0,1,9.77-11.37Z" style="fill: rgb(38, 50, 56); transform-origin: 394.113px 187.047px;" id="el2rjz5l88yr" class="animable"></path><path d="M380.61,157.29c10.25,1.42,17.47,11.29,17.47,11.29l-10.29,16.15A36.48,36.48,0,0,1,373,176C365.9,169.28,371.4,156,380.61,157.29Z" style="fill: #DEB887; transform-origin: 383.922px 170.966px;" id="elfi12rw3b8ej" class="animable"></path><path d="M376.47,157c-1.14,0-2.31-.08-3.46-.09a161,161,0,0,0-18.24.82c-.74.11-1.47.22-2.19.35l-1.49.28a6.12,6.12,0,0,0,.12,5.16c1.16,2.15,3.59,3.24,7.23,3.24l.91,0c8-.35,12.5-4.14,15.86-7.8L377,157Z" style="fill: rgb(38, 50, 56); transform-origin: 363.789px 161.829px;" id="elsivik0s4i1" class="animable"></path><path d="M370.27,136.47c-.88,5.92-1.54,16.72,2.74,20.45-3.05,3.31-6.82,6.53-13.79,6.83s-6.17-3.39-4.44-6c6.47-1.85,6.08-6.7,4.73-11.21Z" style="fill: rgb(255, 195, 189); transform-origin: 363.298px 150.119px;" id="elqlfwjfyzj1c" class="animable"></path><g id="elp2yhflw5gn"><path d="M365.89,140.58l-6.37,5.95a19.68,19.68,0,0,1,.71,3.21c2.48-.47,5.79-3.37,5.94-6A8.87,8.87,0,0,0,365.89,140.58Z" style="opacity: 0.2; transform-origin: 362.864px 145.16px;" class="animable" id="elvigorwutdii"></path></g><path d="M383.86,206l-6-1.53,0,9.62s4.61.6,7.18-1a3,3,0,0,0,1.3-3l-.27-1.64A3,3,0,0,0,383.86,206Z" style="fill: rgb(255, 195, 189); transform-origin: 382.121px 209.335px;" id="el8lij2d9zp6i" class="animable"></path><polygon points="369.87 205.89 371.36 214.34 377.9 214.12 377.88 204.5 369.87 205.89" style="fill: rgb(255, 195, 189); transform-origin: 373.885px 209.42px;" id="elra7fdnoq5t" class="animable"></polygon><path d="M349.44,120.23c-1.16,5,.49,11.94,4.49,15.15,7.13-2.21,15.93-10.87,7.67-15.57S350.09,117.46,349.44,120.23Z" style="fill: rgb(38, 50, 56); transform-origin: 357.008px 126.254px;" id="elh8roi00908a" class="animable"></path><path d="M371.83,128.14c-.95,7.9-1.11,12.58-5.36,16.42-6.39,5.78-16,1.57-17.4-6.47-1.29-7.23.49-19,8.44-21.65A10.87,10.87,0,0,1,371.83,128.14Z" style="fill: rgb(255, 195, 189); transform-origin: 360.306px 131.544px;" id="elxmqqn8puifg" class="animable"></path><path d="M366.39,121.78c-6.49.87-20.5,3.21-21.42-6.07-1-9.77,11.16-8.24,13.36-4.68-1.66-.24-3.37.82-.88,2,4.06,1.91,15-4.43,17.16,2.8C375.84,120,370.19,121.27,366.39,121.78Z" style="fill: rgb(38, 50, 56); transform-origin: 359.847px 115.496px;" id="elqe3smr77l3" class="animable"></path><path d="M363.59,119.88c-.59,5.06,1.83,11.8,6.17,14.54,6.83-3,14.61-12.6,5.87-16.34S363.93,117,363.59,119.88Z" style="fill: rgb(38, 50, 56); transform-origin: 371.51px 125.33px;" id="elpsiferp5wx" class="animable"></path><path d="M375.2,118.15s4.18-.12,5.75,1.75c-.95-.12-3.93-.52-5.32.44A1.3,1.3,0,0,0,375.2,118.15Z" style="fill: rgb(38, 50, 56); transform-origin: 378.075px 119.244px;" id="el4fe4ej439ty" class="animable"></path><path d="M358.4,114s7.86,6.07,18.16,5.14c-.09-2.09-.93-24.25-.93-24.25Z" style="fill: #DEB887; transform-origin: 367.48px 107.063px;" id="elk1f8crt27b8" class="animable"></path><path d="M374.9,137.09a7.58,7.58,0,0,1-4.91,3.07c-2.62.41-3.63-2-2.64-4.32.88-2.09,3.31-4.81,5.82-4.18S376.31,135.08,374.9,137.09Z" style="fill: rgb(255, 195, 189); transform-origin: 371.307px 135.887px;" id="elp7hmj3hgzo" class="animable"></path><path d="M358.43,129.57c0,.65-.37,1.16-.8,1.15s-.75-.54-.74-1.18.37-1.17.8-1.16S358.44,128.92,358.43,129.57Z" style="fill: rgb(38, 50, 56); transform-origin: 357.66px 129.55px;" id="ely8npruwtgw" class="animable"></path><path d="M351.11,129.4c0,.65-.37,1.17-.79,1.16s-.76-.54-.74-1.19.37-1.16.79-1.16S351.12,128.76,351.11,129.4Z" style="fill: rgb(38, 50, 56); transform-origin: 350.345px 129.385px;" id="elcof9zljkwp7" class="animable"></path><path d="M353.43,129.78a23.17,23.17,0,0,1-3.22,5.46,3.73,3.73,0,0,0,3.08.66Z" style="fill: rgb(237, 132, 126); transform-origin: 351.82px 132.887px;" id="el422f1vvfg0x" class="animable"></path><path d="M356.92,137.67a5.32,5.32,0,0,0,3.78-1.9.2.2,0,0,0,0-.27.2.2,0,0,0-.27,0,5.11,5.11,0,0,1-4.29,1.76.2.2,0,0,0-.2.18.19.19,0,0,0,.18.2A5.83,5.83,0,0,0,356.92,137.67Z" style="fill: rgb(38, 50, 56); transform-origin: 358.346px 136.56px;" id="elcg2zzzvxkg" class="animable"></path><path d="M362.05,127.42a.3.3,0,0,0,.18-.06.39.39,0,0,0,.11-.53,3.79,3.79,0,0,0-3-1.75.4.4,0,0,0-.38.39.37.37,0,0,0,.38.37h0a3,3,0,0,1,2.36,1.41A.39.39,0,0,0,362.05,127.42Z" style="fill: rgb(38, 50, 56); transform-origin: 360.68px 126.25px;" id="elcazi52scnsr" class="animable"></path><path d="M348.6,126.65a.39.39,0,0,0,.32-.16,3,3,0,0,1,2.43-1.29.38.38,0,0,0,.4-.36.39.39,0,0,0-.36-.4,3.79,3.79,0,0,0-3.08,1.6.38.38,0,0,0,.08.53A.39.39,0,0,0,348.6,126.65Z" style="fill: rgb(38, 50, 56); transform-origin: 349.993px 125.545px;" id="elp6p2392kqwg" class="animable"></path></g><g id="freepik--birthday-cake--inject-91" class="animable" style="transform-origin: 258.035px 288.01px;"><path d="M315.48,266.36H200.59a2.21,2.21,0,0,1-2.22-2.22h0a2.21,2.21,0,0,1,2.22-2.22H315.48a2.21,2.21,0,0,1,2.22,2.22h0A2.21,2.21,0,0,1,315.48,266.36Z" style="fill: #DEB887; transform-origin: 258.035px 264.14px;" id="el5onsbgtkxsg" class="animable"></path><g id="el2ivnck2t79h"><path d="M315.48,266.36H200.59a2.21,2.21,0,0,1-2.22-2.22h0a2.21,2.21,0,0,1,2.22-2.22H315.48a2.21,2.21,0,0,1,2.22,2.22h0A2.21,2.21,0,0,1,315.48,266.36Z" style="opacity: 0.2; transform-origin: 258.035px 264.14px;" class="animable" id="el1er6c88rl7p"></path></g><path d="M277.14,271.73l6.06-5.37H232.87l6.06,5.37a3.59,3.59,0,0,0,2.4.91h11.33a2.23,2.23,0,0,1,2.23,2.24V408.32a1.57,1.57,0,0,1-1.57,1.57H252a9.3,9.3,0,0,0-8.27,5l-2,3.83h32.67l-2-3.83a9.31,9.31,0,0,0-8.27-5h-1.37a1.57,1.57,0,0,1-1.57-1.57V274.88a2.24,2.24,0,0,1,2.24-2.24h11.33A3.59,3.59,0,0,0,277.14,271.73Z" style="fill: #DEB887; transform-origin: 258.035px 342.54px;" id="elitdgomcuymg" class="animable"></path><g id="elejy01yq7e3l"><path d="M277.14,271.73l6.06-5.37H232.87l6.06,5.37a3.59,3.59,0,0,0,2.4.91h11.33a2.23,2.23,0,0,1,2.23,2.24V408.32a1.57,1.57,0,0,1-1.57,1.57H252a9.3,9.3,0,0,0-8.27,5l-2,3.83h32.67l-2-3.83a9.31,9.31,0,0,0-8.27-5h-1.37a1.57,1.57,0,0,1-1.57-1.57V274.88a2.24,2.24,0,0,1,2.24-2.24h11.33A3.59,3.59,0,0,0,277.14,271.73Z" style="fill: rgb(255, 255, 255); opacity: 0.7; transform-origin: 258.035px 342.54px;" class="animable" id="eli5pl14fhb5i"></path></g><path d="M215.37,225.73H300.7a4.67,4.67,0,0,1,4.67,4.67v28.23a3.29,3.29,0,0,1-3.29,3.29H214a3.29,3.29,0,0,1-3.29-3.29V230.4A4.67,4.67,0,0,1,215.37,225.73Z" style="fill: #DEB887; transform-origin: 258.04px 243.825px;" id="eltwhikmv7n08" class="animable"></path><g id="el401tp7hrb3w"><path d="M300.7,225.73H215.36a4.67,4.67,0,0,0-4.66,4.67v10.21a5.47,5.47,0,0,0,2.5.55c5,0,5-5.18,10-5.18s5,5.18,10,5.18,5-5.18,10-5.18,5,5.18,10,5.18,5-5.18,10-5.18,5,5.18,10,5.18,5-5.18,10-5.18,5,5.18,10,5.18,5-5.18,10-5.18a5.55,5.55,0,0,1,2.52.56V230.4A4.67,4.67,0,0,0,300.7,225.73Z" style="fill: rgb(255, 255, 255); opacity: 0.3; transform-origin: 258.21px 233.439px;" class="animable" id="elf8f27wimf9o"></path></g><path d="M235.87,197.45H280.2a9.89,9.89,0,0,1,9.89,9.89v18.39a0,0,0,0,1,0,0H226a0,0,0,0,1,0,0V207.34A9.89,9.89,0,0,1,235.87,197.45Z" style="fill: #DEB887; transform-origin: 258.045px 211.59px;" id="elpz6ho0zoxhh" class="animable"></path><g id="elhgaxz90ry05"><path d="M235.87,197.45H280.2a9.89,9.89,0,0,1,9.89,9.89v18.39a0,0,0,0,1,0,0H226a0,0,0,0,1,0,0V207.34A9.89,9.89,0,0,1,235.87,197.45Z" style="fill: rgb(255, 255, 255); opacity: 0.5; transform-origin: 258.045px 211.59px;" class="animable" id="el39o4li9v6c2"></path></g><g id="elmb0tshuud0r"><path d="M235.87,197.45H280.2a9.88,9.88,0,0,1,9.88,9.88v9.84a3.7,3.7,0,0,1-1.69.37c-3.37,0-3.37-3.5-6.75-3.5s-3.37,3.5-6.74,3.5-3.37-3.5-6.74-3.5-3.38,3.5-6.75,3.5S258,214,254.67,214s-3.37,3.5-6.75,3.5-3.37-3.5-6.74-3.5-3.37,3.5-6.74,3.5-3.38-3.5-6.75-3.5a3.79,3.79,0,0,0-1.71.37v-7.07A9.89,9.89,0,0,1,235.87,197.45Z" style="fill: #DEB887; opacity: 0.5; transform-origin: 258.03px 207.495px;" class="animable" id="elh2zkqwlftw"></path></g><path d="M290.08,212A5.64,5.64,0,0,1,285.8,210a3.51,3.51,0,0,0-5.68,0,5.49,5.49,0,0,1-8.56,0,3.51,3.51,0,0,0-5.68,0,5.5,5.5,0,0,1-8.57,0,3.51,3.51,0,0,0-5.68,0,5.49,5.49,0,0,1-8.56,0,3.51,3.51,0,0,0-5.68,0,5.5,5.5,0,0,1-8.57,0,3.68,3.68,0,0,0-2.84-1.45,1,1,0,1,1,0-2.06,5.65,5.65,0,0,1,4.28,2.05,3.49,3.49,0,0,0,5.68,0,5.5,5.5,0,0,1,8.57,0,3.49,3.49,0,0,0,5.68,0,5.49,5.49,0,0,1,8.56,0,3.49,3.49,0,0,0,5.68,0,5.5,5.5,0,0,1,8.57,0,3.49,3.49,0,0,0,5.68,0,5.49,5.49,0,0,1,8.56,0,3.71,3.71,0,0,0,2.84,1.46,1,1,0,1,1,0,2.05Z" style="fill: rgb(255, 255, 255); transform-origin: 258.027px 209.27px;" id="elc35wb6b0oa5" class="animable"></path><path d="M305.37,255.37c-3.05,0-4.61-1.53-6-2.88s-2.33-2.3-4.54-2.3-3.29,1.06-4.54,2.3-2.93,2.88-6,2.88-4.61-1.53-6-2.88-2.33-2.3-4.54-2.3-3.29,1.06-4.54,2.3-2.93,2.88-6,2.88-4.6-1.53-6-2.88-2.33-2.3-4.54-2.3-3.28,1.06-4.53,2.3-2.93,2.88-6,2.88-4.61-1.53-6-2.88-2.32-2.3-4.53-2.3-3.29,1.06-4.54,2.3-2.93,2.88-6,2.88-4.61-1.53-6-2.88-2.33-2.3-4.54-2.3a1,1,0,1,1,0-2.05c3.05,0,4.61,1.53,6,2.88s2.33,2.3,4.54,2.3,3.29-1.07,4.54-2.3,2.93-2.88,6-2.88,4.6,1.53,6,2.88,2.33,2.3,4.54,2.3,3.28-1.07,4.53-2.3,2.93-2.88,6-2.88,4.61,1.53,6,2.88,2.33,2.3,4.54,2.3,3.29-1.07,4.54-2.3,2.93-2.88,6-2.88,4.61,1.53,6,2.88,2.33,2.3,4.54,2.3,3.29-1.07,4.54-2.3,2.93-2.88,6-2.88,4.61,1.53,6,2.88,2.33,2.3,4.54,2.3a1,1,0,0,1,0,2.05Z" style="fill: rgb(255, 255, 255); transform-origin: 257.955px 251.755px;" id="elclewa6bb7da" class="animable"></path><path d="M257,171h2a1.4,1.4,0,0,1,1.4,1.4v25a0,0,0,0,1,0,0h-4.83a0,0,0,0,1,0,0v-25A1.4,1.4,0,0,1,257,171Z" style="fill: #DEB887; transform-origin: 257.985px 184.2px;" id="elqlidcwm75l8" class="animable"></path><g id="elv48nj62xq8d"><polygon points="260.45 173.65 255.62 176.97 255.62 180.67 260.45 177.34 260.45 173.65" style="fill: rgb(255, 255, 255); opacity: 0.6; transform-origin: 258.035px 177.16px;" class="animable" id="elufmdn63f4l9"></polygon></g><g id="elucbd7nc6hqr"><polygon points="260.45 180.73 255.62 184.06 255.62 187.75 260.45 184.43 260.45 180.73" style="fill: rgb(255, 255, 255); opacity: 0.6; transform-origin: 258.035px 184.24px;" class="animable" id="el3xrbcz8letv"></polygon></g><g id="el44wwhnloalv"><polygon points="260.45 187.82 255.62 191.15 255.62 194.84 260.45 191.51 260.45 187.82" style="fill: rgb(255, 255, 255); opacity: 0.6; transform-origin: 258.035px 191.33px;" class="animable" id="elv6fm431gyv"></polygon></g><g id="elioaysd8na2p"><path d="M262,166.67c1.71-4.26-3.93-6.44-3.93-9.37-1.74.68-4.6,5.26-4.26,7.79s2.2,4.59,4.91,4.21A4.26,4.26,0,0,0,262,166.67Z" style="fill: #DEB887; opacity: 0.6; transform-origin: 258.053px 163.323px;" class="animable" id="el0jvazujske7l"></path></g><path d="M244,175.52h1.68a1.16,1.16,0,0,1,1.16,1.16v20.77a0,0,0,0,1,0,0h-4a0,0,0,0,1,0,0V176.68A1.16,1.16,0,0,1,244,175.52Z" style="fill: #DEB887; transform-origin: 244.84px 186.485px;" id="eldqymhrx91aj" class="animable"></path><g id="elcb9fv9jvvpe"><polygon points="246.82 177.69 242.81 180.45 242.81 183.52 246.82 180.75 246.82 177.69" style="fill: rgb(255, 255, 255); opacity: 0.6; transform-origin: 244.815px 180.605px;" class="animable" id="elylanx2zhyoh"></polygon></g><g id="elqdyqwgzfkip"><polygon points="246.82 183.57 242.81 186.33 242.81 189.4 246.82 186.64 246.82 183.57" style="fill: rgb(255, 255, 255); opacity: 0.6; transform-origin: 244.815px 186.485px;" class="animable" id="elva3r3h2rf1"></polygon></g><g id="elly9z238pn5r"><polygon points="246.82 189.46 242.81 192.22 242.81 195.28 246.82 192.52 246.82 189.46" style="fill: rgb(255, 255, 255); opacity: 0.6; transform-origin: 244.815px 192.37px;" class="animable" id="el7vmbzg0gp2"></polygon></g><g id="el4tfzxliuzdn"><path d="M248.14,171.9c1.42-3.54-3.26-5.35-3.26-7.79-1.44.57-3.82,4.37-3.53,6.47s1.82,3.82,4.07,3.5A3.54,3.54,0,0,0,248.14,171.9Z" style="fill: #DEB887; opacity: 0.6; transform-origin: 244.867px 169.114px;" class="animable" id="elmazt1yoe3rj"></path></g><path d="M270.31,175.52H272a1.16,1.16,0,0,1,1.16,1.16v20.77a0,0,0,0,1,0,0h-4a0,0,0,0,1,0,0V176.68A1.16,1.16,0,0,1,270.31,175.52Z" style="fill: #DEB887; transform-origin: 271.16px 186.485px;" id="elf1ek5hhnpgt" class="animable"></path><g id="el9krykvd7h2e"><polygon points="273.16 177.69 269.14 180.45 269.14 183.52 273.16 180.75 273.16 177.69" style="fill: rgb(255, 255, 255); opacity: 0.6; transform-origin: 271.15px 180.605px;" class="animable" id="ela9doipc4mt"></polygon></g><g id="el8az9fzcqogp"><polygon points="273.16 183.57 269.14 186.33 269.14 189.4 273.16 186.64 273.16 183.57" style="fill: rgb(255, 255, 255); opacity: 0.6; transform-origin: 271.15px 186.485px;" class="animable" id="el6nlumv0b24"></polygon></g><g id="elo4wpoaevkmm"><polygon points="273.16 189.46 269.14 192.22 269.14 195.28 273.16 192.52 273.16 189.46" style="fill: rgb(255, 255, 255); opacity: 0.6; transform-origin: 271.15px 192.37px;" class="animable" id="elfzieuwufwr8"></polygon></g><g id="elwx5h9lebr6t"><path d="M274.48,171.9c1.41-3.54-3.27-5.35-3.27-7.79-1.44.57-3.81,4.37-3.53,6.47s1.83,3.82,4.07,3.5A3.55,3.55,0,0,0,274.48,171.9Z" style="fill: #DEB887; opacity: 0.6; transform-origin: 271.201px 169.114px;" class="animable" id="elfu44dzvyk89"></path></g></g><defs>     <filter id="active" height="200%">         <feMorphology in="SourceAlpha" result="DILATED" operator="dilate" radius="2"></feMorphology>                <feFlood flood-color="#32DFEC" flood-opacity="1" result="PINK"></feFlood>        <feComposite in="PINK" in2="DILATED" operator="in" result="OUTLINE"></feComposite>        <feMerge>            <feMergeNode in="OUTLINE"></feMergeNode>            <feMergeNode in="SourceGraphic"></feMergeNode>        </feMerge>    </filter>    <filter id="hover" height="200%">        <feMorphology in="SourceAlpha" result="DILATED" operator="dilate" radius="2"></feMorphology>                <feFlood flood-color="#ff0000" flood-opacity="0.5" result="PINK"></feFlood>        <feComposite in="PINK" in2="DILATED" operator="in" result="OUTLINE"></feComposite>        <feMerge>            <feMergeNode in="OUTLINE"></feMergeNode>            <feMergeNode in="SourceGraphic"></feMergeNode>        </feMerge>            <feColorMatrix type="matrix" values="0   0   0   0   0                0   1   0   0   0                0   0   0   0   0                0   0   0   1   0 "></feColorMatrix>    </filter></defs></svg>